<svg width="145" height="36" xmlns="http://www.w3.org/2000/svg">

 <g>
  <title>background</title>
  <rect fill="none" id="canvas_background" height="402" width="582" y="-1" x="-1"/>
 </g>
 <g>
  <title>Layer 1</title>
  <path id="svg_1" fill="#666666" d="m27.2188,0l0,35.3l-7.6053,0l0,-2.4c-1.7011,1.9 -4.1028,3.1 -7.5051,3.1c-6.6046,0 -12.1084,-5.8 -12.1084,-13.3c0,-7.5 5.5038,-13.3 12.1084,-13.3c3.4023,0 5.904,1.2 7.5051,3.1l0,-12.5l7.6053,0zm-7.6053,22.7c0,-3.8 -2.5017,-6.2 -6.0041,-6.2c-3.5024,0 -6.00416,2.4 -6.00416,6.2c0,3.8 2.50176,6.2 6.00416,6.2c3.5024,-0.1 6.0041,-2.4 6.0041,-6.2z"/>
  <path id="svg_2" fill="#666666" d="m42.7298,28.1999c2.1015,0 3.8027,-0.8 4.8034,-1.9l6.1042,3.5c-2.5018,3.4 -6.2043,5.2 -11.0076,5.2c-8.606,0 -14.0097,-5.8 -14.0097,-13.3c0,-7.5 5.4037,-13.3 13.4093,-13.3c7.4051,0 12.8088,5.7 12.8088,13.3c0,1.1 -0.1001,2.1 -0.3002,3l-17.9124,0c1.0007,2.6 3.3023,3.5 6.1042,3.5zm4.6032,-9.1c-0.8005,-2.9 -3.1021,-4 -5.4037,-4c-2.902,0 -4.8033,1.4 -5.5038,4l10.9075,0z"/>
  <path id="svg_3" fill="#666666" d="m82.1563,10.1001l-9.3064,25.2l-8.606,0l-9.3064,-25.2l8.4058,0l5.3037,16l5.3036,-16c0,0 8.2057,0 8.2057,0z"/>
  <path id="svg_4" fill="#666666" d="m83.458,10.1001l7.6053,0l0,25.2l-7.6053,0l0,-25.2z"/>
  <path id="svg_5" fill="#666666" d="m93.665,22.6999c0,-7.5 5.704,-13.3 13.409,-13.3c4.904,0 9.207,2.6 11.408,6.5l-6.604,3.8c-0.901,-1.8 -2.702,-2.8 -4.904,-2.8c-3.302,0 -5.704,2.4 -5.704,5.8c0,3.5 2.402,5.8 5.704,5.8c2.202,0 4.103,-1.1 4.904,-2.8l6.604,3.8c-2.101,3.9 -6.404,6.5 -11.408,6.5c-7.705,0 -13.409,-5.8 -13.409,-13.3z"/>
  <path id="svg_6" fill="#666666" d="m131.892,29.1999c2.101,0 3.803,-0.8 4.803,-1.9l6.104,3.5c-2.501,3.4 -6.204,5.2 -11.007,5.2c-8.606,0 -14.01,-5.8 -14.01,-13.3c0,-7.5 5.504,-13.3 13.409,-13.3c7.406,0 12.809,5.7 12.809,13.3c0,1.1 -0.1,2.1 -0.3,3l-17.912,0c1,2.6 3.302,3.5 6.104,3.5zm4.703,-9.1c-0.8,-2.9 -3.102,-4 -5.404,-4c-2.902,0 -4.803,1.4 -5.503,4l10.907,0z"/>
 </g>
</svg>